<svg width="280" height="328" viewBox="0 0 280 328" fill="none" xmlns="http://www.w3.org/2000/svg">
<mask id="mask0_1193_341" style="mask-type:alpha" maskUnits="userSpaceOnUse" x="4" y="0" width="272" height="320">
<path d="M4 50C4 22.3858 26.3858 0 54 0H226C253.614 0 276 22.3858 276 50V270C276 297.614 253.614 320 226 320H54C26.3858 320 4 297.614 4 270V50Z" fill="#C4C4C4"/>
</mask>
<g mask="url(#mask0_1193_341)">
<rect x="-15" y="-23" width="304" height="360" fill="#FAA881"/>
<path d="M16.8504 230.393C-70.7507 252.02 -158.074 203.026 -178.328 120.985C-198.582 38.9433 -144.094 -45.0607 -56.4925 -66.6875L260.718 -145C301.566 20.4601 192.053 187.139 16.8504 230.393Z" fill="#F26C74"/>
<path d="M302.197 289.365C353.266 363.753 338.134 462.732 268.467 510.56C198.8 558.388 100.995 536.944 49.9254 462.556L-135 193.191C5.5034 96.7315 200.059 140.589 302.197 289.365Z" fill="#7675FD"/>
</g>
</svg>
